<svg width="59" height="59" viewBox="0 0 59 59" fill="none" xmlns="http://www.w3.org/2000/svg">
<g clip-path="url(#clip0_232_122)">
<path d="M50.2606 50.2809H41.5342V36.5874C41.5342 33.3221 41.4659 29.1257 36.9709 29.1257C32.4205 29.1257 31.7273 32.6676 31.7273 36.3458V50.2791H22.9897V22.1232H31.3825V25.9637H31.4949C32.6676 23.7457 35.5198 21.4133 39.7752 21.4133C48.6271 21.4133 50.2698 27.2414 50.2698 34.8192V50.2791L50.2606 50.2809ZM13.1183 18.2752C12.4514 18.2755 11.7909 18.1442 11.1748 17.8888C10.5587 17.6334 9.99908 17.259 9.52792 16.7869C9.05676 16.3149 8.68335 15.7546 8.42908 15.138C8.1748 14.5215 8.04467 13.8608 8.04612 13.1939C8.04722 12.19 8.34593 11.2091 8.9045 10.375C9.46307 9.54094 10.2564 8.89122 11.1842 8.508C12.112 8.12478 13.1326 8.02527 14.117 8.22204C15.1013 8.41882 16.0052 8.90305 16.7144 9.6135C17.4236 10.324 17.9061 11.2287 18.1011 12.2135C18.2961 13.1982 18.1948 14.2186 17.8098 15.1457C17.4249 16.0728 16.7738 16.8649 15.9387 17.422C15.1036 17.979 14.1221 18.276 13.1183 18.2752ZM17.4953 50.2809H8.73937V22.125H17.4953V50.2809ZM54.6414 0H4.35125C1.94884 0 0 1.90091 0 4.25353V54.7483C0 57.1009 1.94884 59.0018 4.35125 59.0018H54.6322C57.0309 59.0018 59 57.1009 59 54.7483V4.25353C59 1.90091 57.0309 0 54.6322 0H54.6414Z" fill="#D8EBFF"/>
</g>
<defs>
<clipPath id="clip0_232_122">
<rect width="59" height="59" fill="white"/>
</clipPath>
</defs>
</svg>
