<svg width="17" height="27" viewBox="0 0 17 27" fill="none" xmlns="http://www.w3.org/2000/svg">
<path d="M8.5 0C3.8046 0 0 3.76379 0 8.42589C0 16.4871 8.5 27 8.5 27C8.5 27 17 16.4854 17 8.42589C17 3.76548 13.1954 0 8.5 0ZM8.5 13.088C7.28266 13.088 6.11517 12.6077 5.25438 11.7527C4.39359 10.8977 3.91 9.73804 3.91 8.52889C3.91 7.31974 4.39359 6.16012 5.25438 5.30512C6.11517 4.45013 7.28266 3.96979 8.5 3.96979C9.71734 3.96979 10.8848 4.45013 11.7456 5.30512C12.6064 6.16012 13.09 7.31974 13.09 8.52889C13.09 9.73804 12.6064 10.8977 11.7456 11.7527C10.8848 12.6077 9.71734 13.088 8.5 13.088Z" fill="#D8EBFF"/>
</svg>
