<svg width="36" height="36" viewBox="0 0 36 36" fill="none" xmlns="http://www.w3.org/2000/svg">
<path d="M31.8853 16.443C32.5963 17.373 32.5963 18.6285 31.8853 19.557C29.6458 22.4805 24.2728 28.5 17.9998 28.5C11.7268 28.5 6.35377 22.4805 4.11427 19.557C3.76835 19.1117 3.58057 18.5639 3.58057 18C3.58057 17.4361 3.76835 16.8883 4.11427 16.443C6.35377 13.5195 11.7268 7.5 17.9998 7.5C24.2728 7.5 29.6458 13.5195 31.8853 16.443V16.443Z" stroke="#051729" stroke-width="2" stroke-linecap="round" stroke-linejoin="round"/>
<path d="M18 22.5C20.4853 22.5 22.5 20.4853 22.5 18C22.5 15.5147 20.4853 13.5 18 13.5C15.5147 13.5 13.5 15.5147 13.5 18C13.5 20.4853 15.5147 22.5 18 22.5Z" stroke="#051729" stroke-width="2" stroke-linecap="round" stroke-linejoin="round"/>
</svg>
