<svg width="60" height="60" viewBox="0 0 60 60" fill="none" xmlns="http://www.w3.org/2000/svg">
<g clip-path="url(#clip0_260_563)">
<path d="M58.8546 29.6967C58.8544 29.9539 58.7786 30.2054 58.6367 30.4199C58.4948 30.6344 58.293 30.8024 58.0564 30.9032L20.254 47.1038C19.921 47.2464 19.5551 47.2943 19.1966 47.2424C18.8382 47.1905 18.5009 47.0407 18.2221 46.8094C17.9433 46.5782 17.7337 46.2745 17.6163 45.9318C17.499 45.5891 17.4784 45.2207 17.557 44.8671L20.9296 29.6967L17.557 14.5264C17.4778 14.1724 17.4979 13.8034 17.6152 13.4602C17.7324 13.1169 17.9422 12.8128 18.2214 12.5812C18.5005 12.3496 18.8383 12.1997 19.1973 12.1479C19.5563 12.0962 19.9226 12.1446 20.2558 12.2878L58.0546 28.4921C58.2912 28.5929 58.493 28.761 58.6349 28.9754C58.7768 29.1899 58.8525 29.4414 58.8527 29.6986L58.8546 29.6967ZM23.3241 31.0072L20.3969 44.184L51.1441 31.0072L23.3241 31.0072ZM51.1441 28.3826L20.3969 15.2057L23.3278 28.3826L51.146 28.3844L51.1441 28.3826Z" fill="black"/>
</g>
<defs>
<clipPath id="clip0_260_563">
<rect width="42" height="42" fill="white" transform="translate(29.6982) rotate(45)"/>
</clipPath>
</defs>
</svg>
