<svg width="20" height="20" viewBox="0 0 20 20" fill="none" xmlns="http://www.w3.org/2000/svg">
<path d="M13.0976 2.05887C13.1218 1.9804 13.1302 1.89795 13.1225 1.81623C13.1147 1.7345 13.091 1.6551 13.0526 1.58255C13.0141 1.51001 12.9618 1.44574 12.8986 1.39342C12.8353 1.3411 12.7624 1.30175 12.6839 1.27762C12.6054 1.25349 12.523 1.24505 12.4413 1.25278C12.3595 1.26051 12.2801 1.28427 12.2076 1.32269C12.135 1.36111 12.0708 1.41344 12.0184 1.4767C11.9661 1.53996 11.9268 1.6129 11.9026 1.69137L6.90264 17.9414C6.85391 18.0998 6.87012 18.2712 6.94771 18.4177C7.02531 18.5642 7.15792 18.6739 7.31639 18.7226C7.47486 18.7714 7.64619 18.7551 7.79271 18.6775C7.93922 18.6 8.04891 18.4673 8.09764 18.3089L13.0976 2.05887ZM6.06764 5.18262C6.12584 5.24067 6.17202 5.30964 6.20353 5.38557C6.23504 5.46151 6.25126 5.54291 6.25126 5.62512C6.25126 5.70733 6.23504 5.78873 6.20353 5.86466C6.17202 5.94059 6.12584 6.00956 6.06764 6.06762L2.13389 10.0001L6.06764 13.9326C6.185 14.05 6.25093 14.2091 6.25093 14.3751C6.25093 14.5411 6.185 14.7003 6.06764 14.8176C5.95028 14.935 5.79111 15.0009 5.62514 15.0009C5.45917 15.0009 5.3 14.935 5.18264 14.8176L0.807641 10.4426C0.749437 10.3846 0.703258 10.3156 0.67175 10.2397C0.640242 10.1637 0.624023 10.0823 0.624023 10.0001C0.624023 9.91791 0.640242 9.83651 0.67175 9.76057C0.703258 9.68464 0.749437 9.61567 0.807641 9.55762L5.18264 5.18262C5.2407 5.12441 5.30967 5.07823 5.3856 5.04673C5.46153 5.01522 5.54293 4.999 5.62514 4.999C5.70735 4.999 5.78875 5.01522 5.86468 5.04673C5.94061 5.07823 6.00958 5.12441 6.06764 5.18262ZM13.9326 5.18262C13.8744 5.24067 13.8283 5.30964 13.7968 5.38557C13.7652 5.46151 13.749 5.54291 13.749 5.62512C13.749 5.70733 13.7652 5.78873 13.7968 5.86466C13.8283 5.94059 13.8744 6.00956 13.9326 6.06762L17.8664 10.0001L13.9326 13.9326C13.8745 13.9907 13.8284 14.0597 13.797 14.1356C13.7655 14.2116 13.7494 14.2929 13.7494 14.3751C13.7494 14.4573 13.7655 14.5387 13.797 14.6146C13.8284 14.6905 13.8745 14.7595 13.9326 14.8176C13.9908 14.8757 14.0597 14.9218 14.1357 14.9533C14.2116 14.9847 14.293 15.0009 14.3751 15.0009C14.4573 15.0009 14.5387 14.9847 14.6146 14.9533C14.6905 14.9218 14.7595 14.8757 14.8176 14.8176L19.1926 10.4426C19.2508 10.3846 19.297 10.3156 19.3285 10.2397C19.36 10.1637 19.3763 10.0823 19.3763 10.0001C19.3763 9.91791 19.36 9.83651 19.3285 9.76057C19.297 9.68464 19.2508 9.61567 19.1926 9.55762L14.8176 5.18262C14.7596 5.12441 14.6906 5.07823 14.6147 5.04673C14.5388 5.01522 14.4574 4.999 14.3751 4.999C14.2929 4.999 14.2115 5.01522 14.1356 5.04673C14.0597 5.07823 13.9907 5.12441 13.9326 5.18262Z" fill="#051729"/>
</svg>
