<svg width="66" height="47" viewBox="0 0 66 47" fill="none" xmlns="http://www.w3.org/2000/svg">
<path d="M51.0428 26.6985C48.0123 26.6985 45.1715 25.4086 42.5893 23.3094L43.2162 20.3374L43.2382 20.2214C43.8075 17.0643 45.573 11.7693 51.0455 11.7693C53.0165 11.7708 54.9063 12.5579 56.3 13.9577C57.6937 15.3575 58.4773 17.2557 58.4788 19.2353C58.4751 21.2145 57.6903 23.1115 56.2964 24.5105C54.9026 25.9095 53.0133 26.6963 51.0428 26.6985ZM51.0428 4.21497C44.0605 4.21497 38.6403 8.76969 36.4403 16.2743C33.0853 11.2086 30.5332 5.12647 29.051 0H21.527V19.6441C21.5248 21.5095 20.7863 23.2979 19.4733 24.6172C18.1603 25.9365 16.38 26.679 14.5228 26.6819C12.6663 26.6783 10.887 25.9354 9.57499 24.6161C8.26302 23.2968 7.52545 21.5088 7.524 19.6441V0H0V19.6441C0 27.6929 6.5175 34.2915 14.5228 34.2915C22.5335 34.2915 29.051 27.6929 29.051 19.6441V16.3572C30.5057 19.4148 32.3015 22.5139 34.4795 25.2539L29.8787 47H37.5705L40.9062 31.2284C43.8295 33.1038 47.19 34.2915 51.0428 34.2915C59.2928 34.2915 66 27.5189 66 19.2381C66 10.9518 59.2928 4.21497 51.0428 4.21497Z" fill="#D8EBFF"/>
</svg>
